<?xml version="1.0" standalone="no"?>
<!DOCTYPE svg PUBLIC "-//W3C//DTD SVG 20010904//EN"
 "http://www.w3.org/TR/2001/REC-SVG-20010904/DTD/svg10.dtd">
<svg version="1.0" xmlns="http://www.w3.org/2000/svg"
 width="190.000000pt" height="107.000000pt" viewBox="0 0 190.000000 107.000000"
 preserveAspectRatio="xMidYMid meet">

<g transform="translate(0.000000,107.000000) scale(0.100000,-0.100000)"
fill="#000000" stroke="none">
<path d="M935 790 c-27 -7 -25 -8 18 -9 26 0 47 4 47 9 0 11 -21 11 -65 0z"/>
<path d="M1015 778 c-16 -5 -59 -7 -95 -5 -40 3 -55 2 -40 -3 23 -7 23 -8 3
-9 -12 -1 -30 -4 -40 -7 -13 -4 -14 -3 -5 4 11 7 10 10 -3 16 -22 8 -27 8 -21
-2 3 -5 -9 -6 -26 -4 -23 4 -29 2 -23 -8 7 -11 -40 -12 -246 -8 -171 4 -220 3
-150 -2 56 -5 105 -11 108 -14 11 -11 -96 -18 -204 -14 -93 4 -118 8 -128 21
-13 18 -25 13 -25 -10 0 -8 32 -45 72 -84 100 -98 237 -163 388 -185 57 -8 84
-25 100 -63 14 -36 116 -112 173 -131 52 -16 142 -17 198 -1 57 16 150 87 184
140 26 42 34 46 105 56 77 10 144 28 161 42 8 7 21 13 27 13 20 0 100 47 161
95 64 50 117 117 106 134 -9 15 -36 14 -33 -1 2 -6 -8 -15 -22 -19 -32 -9
-245 -9 -285 0 -25 6 -20 9 35 14 36 4 85 9 110 11 25 2 -67 1 -203 -2 -180
-4 -251 -2 -256 6 -4 7 -25 13 -46 14 -22 2 -42 6 -45 9 -3 3 -18 2 -35 -3z
m22 -14 c-3 -3 -12 -4 -19 -1 -8 3 -5 6 6 6 11 1 17 -2 13 -5z m82 -30 c-6 -8
-9 -18 -5 -22 4 -4 12 1 17 11 9 15 25 17 117 15 l107 -1 -93 -6 c-80 -5 -96
-9 -110 -28 l-17 -22 -28 23 c-27 21 -27 24 -12 40 20 20 42 11 24 -10z m-309
1 c14 -17 2 -38 -31 -56 -14 -7 -17 -6 -13 4 9 26 -28 42 -110 48 l-81 6 97 1
c76 2 100 -1 112 -14 9 -8 16 -12 16 -7 0 5 -5 14 -12 21 -8 8 -8 12 -1 12 6
0 16 -7 23 -15z m-227 -22 c-7 -2 -19 -2 -25 0 -7 3 -2 5 12 5 14 0 19 -2 13
-5z m92 -4 c-38 -7 -37 -8 12 -5 53 3 78 -9 65 -31 -4 -6 -23 -12 -43 -14 -38
-3 -62 10 -80 43 -9 16 -5 18 38 17 l48 -2 -40 -8z m570 1 l-50 -7 50 -2 c46
-2 48 -3 27 -14 -12 -7 -19 -16 -16 -20 4 -4 -16 -7 -44 -7 -45 0 -52 3 -52
20 0 27 27 40 85 38 l50 -1 -50 -7z m108 3 c-7 -2 -19 -2 -25 0 -7 3 -2 5 12
5 14 0 19 -2 13 -5z m-827 -16 c9 -9 -82 -18 -214 -22 -112 -3 -132 -1 -145
13 -15 16 -3 17 169 16 102 -1 187 -4 190 -7z m409 2 c-16 -4 -43 -11 -58 -14
-22 -4 -26 -9 -18 -19 7 -8 32 -11 73 -10 l63 3 -58 -8 c-32 -5 -61 -11 -64
-15 -7 -7 28 -10 67 -7 14 1 30 -5 37 -15 12 -16 13 -16 13 -1 0 9 8 17 18 17
14 0 15 2 2 10 -9 6 -10 10 -3 10 6 0 21 -12 33 -27 l21 -28 -16 32 c-14 29
-14 33 2 42 14 7 8 11 -28 20 -43 10 -43 10 -5 6 78 -9 156 -85 156 -152 0
-31 -2 -33 -35 -33 -20 0 -49 7 -66 16 -24 12 -29 19 -23 37 7 22 6 22 -15 3
-20 -18 -20 -20 -3 -33 15 -12 14 -13 -13 -7 -16 4 -36 11 -42 17 -9 6 -24 4
-47 -7 -19 -9 -39 -16 -45 -16 -17 0 -14 -6 24 -47 38 -42 28 -55 -24 -33 -27
11 -28 14 -23 58 5 46 4 47 -15 30 -12 -11 -36 -18 -61 -18 -22 0 -44 -4 -47
-10 -3 -5 -11 -10 -18 -10 -8 0 -8 3 1 12 15 15 16 68 1 68 -5 0 -7 6 -3 13 6
10 4 10 -7 0 -17 -17 -32 -16 -26 1 4 10 0 12 -15 8 -16 -4 -19 -2 -13 8 6 10
4 12 -11 6 -18 -7 -18 -6 -1 11 12 12 20 14 25 7 13 -19 72 -44 72 -30 0 15
56 69 88 85 23 12 94 29 122 29 8 0 2 -4 -15 -9z m657 1 c145 0 169 -2 159
-14 -9 -11 -40 -13 -149 -10 -153 4 -212 11 -212 26 0 6 7 7 16 4 9 -3 92 -6
186 -6z m-999 -7 c-7 -2 -21 -2 -30 0 -10 3 -4 5 12 5 17 0 24 -2 18 -5z m750
0 c-7 -2 -19 -2 -25 0 -7 3 -2 5 12 5 14 0 19 -2 13 -5z m-815 -26 c-21 -16
-227 -42 -263 -33 -17 4 -24 3 -20 -3 3 -7 0 -8 -10 -5 -8 4 -20 15 -26 26
-10 18 -9 18 11 8 16 -9 54 -9 153 0 73 7 134 14 136 16 2 2 11 4 20 4 14 -1
14 -2 -1 -13z m92 -2 c8 -9 8 -15 2 -15 -6 0 -19 -3 -29 -6 -16 -5 -16 -4 2
11 20 17 20 17 -2 10 -14 -4 -23 -2 -23 4 0 16 36 13 50 -4z m714 6 c3 -4 -7
-6 -22 -4 -21 4 -24 2 -12 -6 13 -9 12 -11 -4 -11 -20 0 -20 0 0 -15 22 -17
12 -20 -16 -5 -18 10 -19 12 -3 30 18 21 48 27 57 11z m196 -11 c63 -5 121
-10 128 -10 7 0 10 -4 7 -10 -3 -5 -25 -10 -48 -10 -63 1 -210 25 -232 38 -18
11 -18 12 5 7 14 -2 77 -9 140 -15z m178 -10 c-17 -27 -42 -37 -28 -11 8 16
19 24 38 30 1 1 -3 -8 -10 -19z m-1148 -10 c0 -14 -68 -30 -130 -30 -39 0 -51
-3 -40 -10 11 -7 2 -10 -31 -10 -85 0 -61 15 58 36 146 26 143 26 143 14z m90
1 c0 -10 -24 -21 -43 -21 -7 0 -3 7 7 15 22 17 36 19 36 6z m75 -1 c-3 -5 -12
-7 -20 -3 -21 7 -19 13 6 13 11 0 18 -4 14 -10z m495 6 c0 -9 -30 -14 -35 -6
-4 6 3 10 14 10 12 0 21 -2 21 -4z m282 -23 c116 -19 140 -33 56 -32 -37 0
-47 3 -33 8 13 5 -8 10 -63 13 -62 4 -87 9 -100 23 -16 17 -16 17 8 11 14 -3
73 -14 132 -23z m-237 -3 c3 -5 2 -10 -4 -10 -5 0 -13 5 -16 10 -3 6 -2 10 4
10 5 0 13 -4 16 -10z m-687 -16 c-9 -9 -42 -20 -75 -24 -32 -4 -51 -8 -43 -9
28 -3 -12 -21 -47 -21 -63 0 -40 17 55 42 122 32 132 33 110 12z m663 -1 c13
-16 12 -17 -3 -4 -10 7 -18 15 -18 17 0 8 8 3 21 -13z m159 -3 l65 -19 -45 0
c-29 -1 -56 6 -75 19 -37 24 -28 25 55 0z m-185 -10 c10 -11 16 -20 13 -20 -3
0 -13 9 -23 20 -10 11 -16 20 -13 20 3 0 13 -9 23 -20z m-610 -9 c8 -14 -28
-31 -65 -31 -17 0 -29 -4 -26 -9 3 -5 -1 -12 -10 -15 -25 -9 -64 -7 -64 4 0 6
6 10 13 10 7 0 40 11 72 24 71 29 72 29 80 17z m765 -14 c35 -15 35 -15 7 -16
-24 -1 -87 23 -87 33 0 7 47 -3 80 -17z m-170 3 c0 -5 -2 -10 -4 -10 -3 0 -8
5 -11 10 -3 6 -1 10 4 10 6 0 11 -4 11 -10z m320 0 c22 -6 23 -8 7 -15 -9 -4
-34 -4 -55 0 -31 6 -34 9 -17 15 24 10 33 10 65 0z m-890 -25 c-7 -8 -23 -15
-37 -15 -13 0 -22 -4 -19 -9 7 -11 -33 -23 -47 -14 -6 3 17 18 49 33 63 29 75
30 54 5z m680 5 c28 -16 31 -19 14 -20 -12 0 -32 9 -45 20 -30 25 -14 25 31 0z
m-630 -9 c0 -13 -70 -55 -78 -46 -4 3 0 10 8 15 8 5 24 16 35 24 23 18 35 20
35 7z m621 -37 c13 -16 12 -16 -17 -1 -17 9 -37 23 -45 33 -13 16 -12 16 17 1
17 -9 37 -23 45 -33z m164 25 c11 -10 -19 -12 -53 -2 -18 4 -20 8 -10 14 14 9
47 3 63 -12z m-768 -24 c-27 -26 -42 -16 -16 11 13 14 25 20 27 15 2 -6 -3
-18 -11 -26z m547 -14 c-6 -7 -44 31 -44 43 0 6 11 -1 24 -14 13 -14 22 -27
20 -29z m-264 24 c18 -22 8 -50 -19 -50 -28 0 -47 25 -38 49 8 20 40 21 57 1z
m410 -7 c0 -6 -10 -8 -22 -4 -13 3 -27 6 -33 6 -5 0 -4 4 4 9 16 10 51 3 51
-11z m-330 -21 c0 -24 -25 -47 -57 -53 l-32 -6 32 35 c33 37 57 47 57 24z
m140 3 c0 -5 -2 -10 -4 -10 -3 0 -8 5 -11 10 -3 6 -1 10 4 10 6 0 11 -4 11
-10z m-365 -40 c19 -36 71 -54 143 -48 48 4 60 10 89 41 21 24 42 37 58 37 32
0 32 -10 -2 -42 -37 -34 -61 -46 -122 -59 -85 -18 -218 29 -250 89 -8 15 -5
17 30 14 31 -3 43 -10 54 -32z m-42 -62 c27 -19 37 -48 16 -48 -21 0 -78 41
-99 70 l-21 29 38 -15 c21 -9 50 -25 66 -36z m370 -9 c-43 -40 -73 -50 -73
-25 0 25 92 83 110 68 3 -2 -14 -21 -37 -43z m-293 -19 c0 -20 -24 -60 -37
-60 -16 0 -17 24 -3 51 11 19 40 27 40 9z m210 -46 c0 -8 -6 -14 -14 -14 -15
0 -38 54 -28 65 8 8 42 -33 42 -51z m-50 25 c0 -5 -9 -9 -19 -9 -27 0 -36 -17
-19 -37 11 -14 11 -16 -2 -11 -8 2 -16 19 -18 38 -3 26 0 32 12 27 9 -4 16 -2
16 3 0 5 7 7 15 4 8 -4 15 -10 15 -15z m-130 1 c0 -5 -7 -10 -16 -10 -8 0 -12
5 -9 10 3 6 10 10 16 10 5 0 9 -4 9 -10z m26 -17 c-10 -10 -19 5 -10 18 6 11
8 11 12 0 2 -7 1 -15 -2 -18z m34 7 c0 -5 -2 -10 -4 -10 -3 0 -8 5 -11 10 -3
6 -1 10 4 10 6 0 11 -4 11 -10z m76 -37 c-7 -7 -26 7 -26 19 0 6 6 6 15 -2 9
-7 13 -15 11 -17z m-146 7 c0 -5 -5 -10 -11 -10 -5 0 -7 5 -4 10 3 6 8 10 11
10 2 0 4 -4 4 -10z m40 -10 c0 -5 -7 -10 -16 -10 -8 0 -12 5 -9 10 3 6 10 10
16 10 5 0 9 -4 9 -10z"/>
<path d="M851 604 c0 -11 3 -14 6 -6 3 7 2 16 -1 19 -3 4 -6 -2 -5 -13z"/>
<path d="M943 583 c9 -2 25 -2 35 0 9 3 1 5 -18 5 -19 0 -27 -2 -17 -5z"/>
<path d="M688 773 c12 -2 30 -2 40 0 9 3 -1 5 -23 4 -22 0 -30 -2 -17 -4z"/>
<path d="M1198 773 c12 -2 30 -2 40 0 9 3 -1 5 -23 4 -22 0 -30 -2 -17 -4z"/>
</g>
</svg>
