<?xml version="1.0" standalone="no"?>
<!DOCTYPE svg PUBLIC "-//W3C//DTD SVG 20010904//EN"
 "http://www.w3.org/TR/2001/REC-SVG-20010904/DTD/svg10.dtd">
<svg version="1.0" xmlns="http://www.w3.org/2000/svg"
 width="205.000000pt" height="163.000000pt" viewBox="0 0 205.000000 163.000000"
 preserveAspectRatio="xMidYMid meet">

<g transform="translate(0.000000,163.000000) scale(0.100000,-0.100000)"
fill="#000000" stroke="none">
<path d="M84 1556 l-34 -34 0 -702 0 -702 34 -34 34 -34 912 0 912 0 34 34 34
34 0 702 0 702 -34 34 -34 34 -912 0 -912 0 -34 -34z m1860 -32 c14 -14 16
-91 16 -704 0 -613 -2 -690 -16 -704 -14 -14 -110 -16 -914 -16 -804 0 -900 2
-914 16 -14 14 -16 91 -16 704 0 613 2 690 16 704 14 14 110 16 914 16 804 0
900 -2 914 -16z"/>
<path d="M818 1480 c-139 -24 -244 -92 -207 -136 16 -20 48 -18 187 13 95 21
122 30 122 43 0 15 -7 15 -80 2 -45 -8 -84 -11 -88 -7 -10 10 27 34 62 39 104
16 106 17 106 36 0 22 -18 24 -102 10z"/>
<path d="M990 1478 c-15 -8 -26 -24 -28 -41 -4 -35 6 -39 190 -68 121 -18 150
-20 162 -9 38 31 3 77 -79 105 -67 23 -212 30 -245 13z m184 -34 c9 -3 16 -15
16 -25 0 -15 -7 -19 -32 -19 -42 0 -63 13 -55 34 6 16 42 21 71 10z"/>
<path d="M1373 1379 c-33 -34 -18 -51 157 -179 94 -69 135 -84 146 -55 12 31
-9 72 -69 130 -88 86 -202 137 -234 104z m168 -90 c51 -36 27 -78 -25 -44 -25
16 -34 44 -19 58 9 10 12 9 44 -14z"/>
<path d="M465 1337 c-17 -11 -59 -45 -94 -76 l-63 -55 6 -55 c4 -30 9 -66 12
-78 6 -23 7 -23 41 14 19 21 40 52 48 70 14 31 63 73 84 73 21 0 122 63 114
71 -4 4 -33 19 -63 32 l-56 25 -29 -21z m-5 -92 c0 -1 -9 -10 -20 -20 -20 -18
-20 -17 -20 8 0 20 4 24 20 20 11 -3 20 -6 20 -8z"/>
<path d="M858 1344 c-367 -66 -618 -366 -570 -681 33 -220 214 -417 453 -497
442 -147 930 98 991 496 63 419 -387 770 -874 682z m309 -50 c69 -14 208 -62
201 -69 -2 -2 -39 -8 -82 -14 -93 -13 -161 -42 -231 -98 l-51 -40 -43 38 c-64
55 -139 88 -228 100 -43 6 -79 12 -81 14 -6 6 136 56 198 70 88 18 225 18 317
-1z m-347 -153 c30 -11 78 -41 105 -65 l50 -45 -28 -48 c-15 -26 -35 -65 -44
-85 -15 -36 -18 -38 -63 -38 -33 0 -55 -6 -73 -20 l-26 -21 -7 28 c-15 71 -32
104 -100 204 -40 59 -70 110 -66 114 14 15 196 -2 252 -24z m630 16 c0 -7 -23
-44 -51 -82 -68 -94 -109 -177 -116 -234 l-5 -47 -33 33 c-28 28 -40 33 -82
33 l-48 0 -40 87 -39 86 39 34 c50 43 124 82 179 93 70 13 196 12 196 -3z
m-863 -120 c125 -187 130 -228 41 -344 -98 -127 -126 -243 -81 -330 68 -132
290 -134 417 -4 l39 40 44 -40 c70 -64 143 -94 233 -94 63 0 82 4 120 27 60
35 90 88 90 161 0 89 -28 150 -124 272 -22 27 -31 50 -34 88 -4 60 21 116 102
226 26 36 51 72 57 80 7 13 18 6 63 -41 146 -154 176 -368 80 -567 -43 -88
-171 -209 -275 -259 -130 -63 -193 -76 -349 -76 -156 0 -219 13 -349 76 -104
50 -232 171 -275 259 -74 154 -74 305 -1 455 24 49 118 164 134 164 3 0 34
-42 68 -93z m448 -127 c23 -44 19 -50 -31 -50 -45 0 -46 0 -39 27 14 59 46 70
70 23z m-160 -170 l0 -100 -43 0 c-62 0 -92 32 -92 100 0 68 30 100 92 100
l43 0 0 -100z m190 77 c3 -12 5 -56 3 -97 l-3 -75 -54 -3 c-37 -2 -57 1 -62
10 -10 15 -12 132 -3 166 6 19 13 22 60 22 47 0 54 -3 59 -23z m170 -2 c20
-19 25 -34 25 -75 0 -68 -30 -100 -92 -100 l-43 0 0 100 0 100 43 0 c32 0 49
-6 67 -25z m115 -150 c124 -147 128 -292 10 -339 -88 -35 -191 -11 -272 63
l-51 47 25 55 c14 30 31 71 39 92 13 36 14 37 62 37 42 0 54 5 83 34 28 28 34
42 34 78 l1 43 13 -30 c8 -16 33 -52 56 -80z m-589 -19 c23 -20 42 -26 77 -26
l47 -1 44 -88 c43 -85 44 -90 28 -114 -21 -33 -101 -85 -151 -98 -56 -15 -141
-7 -174 18 -90 66 -78 177 37 330 l46 61 8 -28 c4 -16 21 -40 38 -54z m288
-53 c-14 -38 -28 -53 -50 -53 -20 0 -27 9 -39 50 l-9 30 54 0 55 0 -11 -27z"/>
<path d="M1701 1104 l-40 -39 36 -57 c31 -49 38 -56 54 -47 25 13 34 -8 25
-55 -5 -28 23 -168 37 -182 7 -7 91 24 95 35 2 6 -6 43 -18 82 -18 61 -23 69
-40 64 -18 -6 -20 -1 -20 47 0 44 -7 65 -36 114 -19 32 -39 63 -44 68 -5 4
-26 -9 -49 -30z"/>
<path d="M202 1046 c-79 -130 -114 -304 -65 -323 24 -9 49 25 88 120 21 51 49
111 62 135 23 40 25 72 5 72 -4 0 -24 -32 -42 -71 -42 -85 -60 -104 -60 -62 0
16 17 58 39 94 28 46 36 68 29 77 -16 19 -22 15 -56 -42z"/>
</g>
</svg>
